<svg id="visual" viewBox="0 0 675 900" width="675" height="900" xmlns="http://www.w3.org/2000/svg" xmlns:xlink="http://www.w3.org/1999/xlink" version="1.1"><rect x="0" y="0" width="675" height="900" fill="#003049"></rect><defs><linearGradient id="grad1_0" x1="0%" y1="0%" x2="100%" y2="100%"><stop offset="30%" stop-color="#003049" stop-opacity="1"></stop><stop offset="70%" stop-color="#003049" stop-opacity="1"></stop></linearGradient></defs><defs><linearGradient id="grad2_0" x1="0%" y1="0%" x2="100%" y2="100%"><stop offset="30%" stop-color="#003049" stop-opacity="1"></stop><stop offset="70%" stop-color="#003049" stop-opacity="1"></stop></linearGradient></defs><g transform="translate(675, 0)"><path d="M0 421.9C-27.3 365.9 -54.7 309.9 -96.4 296.7C-138.1 283.5 -194.2 313.1 -215.1 296.1C-236 279.1 -221.7 215.4 -254 184.6C-286.4 153.7 -365.5 155.7 -401.2 130.4C-437 105.1 -429.4 52.5 -421.9 0L0 0Z" fill="#669BBC"></path></g><g transform="translate(0, 900)"><path d="M0 -421.9C48.8 -412.4 97.6 -402.9 117.7 -362.4C137.9 -321.8 129.5 -250.1 170.5 -234.6C211.4 -219.1 301.7 -259.8 341.3 -248C380.9 -236.2 369.7 -171.8 374.7 -121.8C379.7 -71.7 400.8 -35.8 421.9 0L0 0Z" fill="#669BBC"></path></g></svg>